<mxfile host="app.diagrams.net" modified="2020-08-28T14:18:43.484Z" agent="5.0 (X11; Linux x86_64) AppleWebKit/537.36 (KHTML, like Gecko) Chrome/84.0.4147.135 Safari/537.36" etag="O4L-80wLIGFfJCajJRIi" version="13.6.5" type="github">
  <diagram name="Page-1" id="c7558073-3199-34d8-9f00-42111426c3f3">
    <mxGraphModel dx="1117" dy="779" grid="1" gridSize="10" guides="1" tooltips="1" connect="1" arrows="1" fold="1" page="1" pageScale="1" pageWidth="826" pageHeight="1169" background="#ffffff" math="0" shadow="0">
      <root>
        <mxCell id="0" />
        <mxCell id="1" parent="0" />
        <mxCell id="LqTxaYQMs7TZ_4GwrZzh-113" value="" style="edgeStyle=orthogonalEdgeStyle;rounded=0;orthogonalLoop=1;jettySize=auto;html=1;" edge="1" parent="1" source="LqTxaYQMs7TZ_4GwrZzh-111" target="LqTxaYQMs7TZ_4GwrZzh-112">
          <mxGeometry relative="1" as="geometry" />
        </mxCell>
        <mxCell id="LqTxaYQMs7TZ_4GwrZzh-111" value="&lt;b&gt;NEW&lt;/b&gt;" style="rounded=1;whiteSpace=wrap;html=1;fillColor=#fff2cc;strokeColor=#d6b656;" vertex="1" parent="1">
          <mxGeometry x="40" y="120" width="100" height="50" as="geometry" />
        </mxCell>
        <mxCell id="LqTxaYQMs7TZ_4GwrZzh-115" value="" style="edgeStyle=orthogonalEdgeStyle;rounded=0;orthogonalLoop=1;jettySize=auto;html=1;" edge="1" parent="1" source="LqTxaYQMs7TZ_4GwrZzh-112" target="LqTxaYQMs7TZ_4GwrZzh-114">
          <mxGeometry relative="1" as="geometry">
            <Array as="points">
              <mxPoint x="251" y="220" />
            </Array>
          </mxGeometry>
        </mxCell>
        <mxCell id="LqTxaYQMs7TZ_4GwrZzh-123" value="" style="edgeStyle=orthogonalEdgeStyle;rounded=0;orthogonalLoop=1;jettySize=auto;html=1;" edge="1" parent="1" source="LqTxaYQMs7TZ_4GwrZzh-112" target="LqTxaYQMs7TZ_4GwrZzh-116">
          <mxGeometry relative="1" as="geometry" />
        </mxCell>
        <mxCell id="LqTxaYQMs7TZ_4GwrZzh-112" value="&lt;b&gt;SEEN&lt;/b&gt;" style="rounded=1;whiteSpace=wrap;html=1;fillColor=#f5f5f5;strokeColor=#666666;fontColor=#333333;" vertex="1" parent="1">
          <mxGeometry x="201" y="120" width="100" height="50" as="geometry" />
        </mxCell>
        <mxCell id="LqTxaYQMs7TZ_4GwrZzh-114" value="&lt;b&gt;DISCARTED&lt;/b&gt;" style="rounded=1;whiteSpace=wrap;html=1;fillColor=#f8cecc;strokeColor=#b85450;" vertex="1" parent="1">
          <mxGeometry x="201" y="200" width="100" height="50" as="geometry" />
        </mxCell>
        <mxCell id="LqTxaYQMs7TZ_4GwrZzh-119" value="" style="edgeStyle=orthogonalEdgeStyle;rounded=0;orthogonalLoop=1;jettySize=auto;html=1;" edge="1" parent="1" source="LqTxaYQMs7TZ_4GwrZzh-116" target="LqTxaYQMs7TZ_4GwrZzh-118">
          <mxGeometry relative="1" as="geometry" />
        </mxCell>
        <mxCell id="LqTxaYQMs7TZ_4GwrZzh-116" value="&lt;b&gt;PROMOTED&lt;/b&gt;" style="rounded=1;whiteSpace=wrap;html=1;fillColor=#dae8fc;strokeColor=#6c8ebf;" vertex="1" parent="1">
          <mxGeometry x="360" y="120" width="100" height="50" as="geometry" />
        </mxCell>
        <mxCell id="LqTxaYQMs7TZ_4GwrZzh-122" value="" style="edgeStyle=orthogonalEdgeStyle;rounded=0;orthogonalLoop=1;jettySize=auto;html=1;" edge="1" parent="1" source="LqTxaYQMs7TZ_4GwrZzh-118" target="LqTxaYQMs7TZ_4GwrZzh-121">
          <mxGeometry relative="1" as="geometry" />
        </mxCell>
        <mxCell id="LqTxaYQMs7TZ_4GwrZzh-118" value="&lt;b&gt;IN PROGRESS&lt;/b&gt;" style="rounded=1;whiteSpace=wrap;html=1;fillColor=#d80073;strokeColor=#A50040;fontColor=#ffffff;" vertex="1" parent="1">
          <mxGeometry x="516" y="120" width="100" height="50" as="geometry" />
        </mxCell>
        <mxCell id="LqTxaYQMs7TZ_4GwrZzh-121" value="&lt;b&gt;COMPLETED&lt;/b&gt;" style="rounded=1;whiteSpace=wrap;html=1;fillColor=#d5e8d4;strokeColor=#82b366;" vertex="1" parent="1">
          <mxGeometry x="680" y="120" width="100" height="50" as="geometry" />
        </mxCell>
        <mxCell id="LqTxaYQMs7TZ_4GwrZzh-124" value="Threat state workflow" style="rounded=1;whiteSpace=wrap;html=1;fontStyle=1;align=center;fillColor=#f5f5f5;strokeColor=#666666;fontColor=#333333;" vertex="1" parent="1">
          <mxGeometry x="40" y="80" width="740" height="20" as="geometry" />
        </mxCell>
        <mxCell id="LqTxaYQMs7TZ_4GwrZzh-125" value="Threat candidate workflow" style="rounded=1;whiteSpace=wrap;html=1;fontStyle=1;align=center;fillColor=#f5f5f5;strokeColor=#666666;fontColor=#333333;" vertex="1" parent="1">
          <mxGeometry x="40" y="320" width="740" height="20" as="geometry" />
        </mxCell>
        <mxCell id="LqTxaYQMs7TZ_4GwrZzh-127" value="" style="edgeStyle=orthogonalEdgeStyle;rounded=0;orthogonalLoop=1;jettySize=auto;html=1;" edge="1" source="LqTxaYQMs7TZ_4GwrZzh-128" target="LqTxaYQMs7TZ_4GwrZzh-130" parent="1">
          <mxGeometry relative="1" as="geometry" />
        </mxCell>
        <mxCell id="LqTxaYQMs7TZ_4GwrZzh-128" value="&lt;b&gt;NEW&lt;/b&gt;" style="rounded=1;whiteSpace=wrap;html=1;fillColor=#fff2cc;strokeColor=#d6b656;" vertex="1" parent="1">
          <mxGeometry x="190" y="360" width="100" height="50" as="geometry" />
        </mxCell>
        <mxCell id="LqTxaYQMs7TZ_4GwrZzh-129" value="" style="edgeStyle=orthogonalEdgeStyle;rounded=0;orthogonalLoop=1;jettySize=auto;html=1;" edge="1" source="LqTxaYQMs7TZ_4GwrZzh-130" target="LqTxaYQMs7TZ_4GwrZzh-131" parent="1">
          <mxGeometry relative="1" as="geometry">
            <Array as="points">
              <mxPoint x="401" y="460" />
            </Array>
          </mxGeometry>
        </mxCell>
        <mxCell id="LqTxaYQMs7TZ_4GwrZzh-133" value="" style="edgeStyle=orthogonalEdgeStyle;rounded=0;orthogonalLoop=1;jettySize=auto;html=1;" edge="1" parent="1" source="LqTxaYQMs7TZ_4GwrZzh-130" target="LqTxaYQMs7TZ_4GwrZzh-132">
          <mxGeometry relative="1" as="geometry" />
        </mxCell>
        <mxCell id="LqTxaYQMs7TZ_4GwrZzh-130" value="&lt;b&gt;SEEN&lt;/b&gt;" style="rounded=1;whiteSpace=wrap;html=1;fillColor=#f5f5f5;strokeColor=#666666;fontColor=#333333;" vertex="1" parent="1">
          <mxGeometry x="351" y="360" width="100" height="50" as="geometry" />
        </mxCell>
        <mxCell id="LqTxaYQMs7TZ_4GwrZzh-131" value="&lt;b&gt;DISCARTED&lt;/b&gt;" style="rounded=1;whiteSpace=wrap;html=1;fillColor=#f8cecc;strokeColor=#b85450;" vertex="1" parent="1">
          <mxGeometry x="351" y="440" width="100" height="50" as="geometry" />
        </mxCell>
        <mxCell id="LqTxaYQMs7TZ_4GwrZzh-132" value="&lt;b&gt;ASSIGNED&lt;/b&gt;" style="rounded=1;whiteSpace=wrap;html=1;fillColor=#dae8fc;strokeColor=#6c8ebf;" vertex="1" parent="1">
          <mxGeometry x="510" y="360" width="100" height="50" as="geometry" />
        </mxCell>
        <mxCell id="LqTxaYQMs7TZ_4GwrZzh-134" value="Threat search rule workflow" style="rounded=1;whiteSpace=wrap;html=1;fontStyle=1;align=center;fillColor=#f5f5f5;strokeColor=#666666;fontColor=#333333;" vertex="1" parent="1">
          <mxGeometry x="40" y="560" width="740" height="20" as="geometry" />
        </mxCell>
        <mxCell id="LqTxaYQMs7TZ_4GwrZzh-135" value="" style="edgeStyle=orthogonalEdgeStyle;rounded=0;orthogonalLoop=1;jettySize=auto;html=1;startArrow=classic;startFill=1;" edge="1" source="LqTxaYQMs7TZ_4GwrZzh-136" target="LqTxaYQMs7TZ_4GwrZzh-139" parent="1">
          <mxGeometry relative="1" as="geometry" />
        </mxCell>
        <mxCell id="LqTxaYQMs7TZ_4GwrZzh-136" value="&lt;b&gt;ACTIVE&lt;/b&gt;" style="rounded=1;whiteSpace=wrap;html=1;fillColor=#d5e8d4;strokeColor=#82b366;" vertex="1" parent="1">
          <mxGeometry x="270.5" y="600" width="100" height="50" as="geometry" />
        </mxCell>
        <mxCell id="LqTxaYQMs7TZ_4GwrZzh-139" value="&lt;b&gt;DISABLED&lt;/b&gt;" style="rounded=1;whiteSpace=wrap;html=1;fillColor=#f5f5f5;strokeColor=#666666;fontColor=#333333;" vertex="1" parent="1">
          <mxGeometry x="431.5" y="600" width="100" height="50" as="geometry" />
        </mxCell>
      </root>
    </mxGraphModel>
  </diagram>
</mxfile>
